<?xml version="1.0" encoding="UTF-8" standalone="no"?>
<!-- Created with Inkscape (http://www.inkscape.org/) -->

<svg
   width="24"
   height="24"
   viewBox="0 0 6.3499999 6.3500002"
   version="1.1"
   id="svg1683"
   inkscape:version="1.1.1 (3bf5ae0d25, 2021-09-20)"
   sodipodi:docname="glasses.svg"
   xmlns:inkscape="http://www.inkscape.org/namespaces/inkscape"
   xmlns:sodipodi="http://sodipodi.sourceforge.net/DTD/sodipodi-0.dtd"
   xmlns="http://www.w3.org/2000/svg"
   xmlns:svg="http://www.w3.org/2000/svg">
  <sodipodi:namedview
     id="namedview1685"
     pagecolor="#505050"
     bordercolor="#eeeeee"
     borderopacity="1"
     inkscape:pageshadow="0"
     inkscape:pageopacity="0"
     inkscape:pagecheckerboard="0"
     inkscape:document-units="px"
     showgrid="false"
     units="px"
     inkscape:zoom="20.496745"
     inkscape:cx="5.9521645"
     inkscape:cy="16.758758"
     inkscape:window-width="1920"
     inkscape:window-height="1009"
     inkscape:window-x="-8"
     inkscape:window-y="-8"
     inkscape:window-maximized="1"
     inkscape:current-layer="layer1" />
  <defs
     id="defs1680" />
  <g
     inkscape:label="Layer 1"
     inkscape:groupmode="layer"
     id="layer1">
    <circle
       style="fill:#ffff00;stroke:#000000;stroke-width:0.248151;stroke-linecap:round;stroke-miterlimit:4;stroke-dasharray:none"
       id="path858"
       cx="3.175"
       cy="3.175"
       r="3.0509245" />
    <circle
       style="fill:#000000;stroke:none;stroke-width:0.396875;stroke-linecap:round;stroke-miterlimit:4;stroke-dasharray:none"
       id="path1050"
       cx="2.2654083"
       cy="2.2137725"
       r="0.39687499" />
    <path
       id="path1050-9"
       style="stroke-width:0.529167;stroke-linecap:round"
       d="m 1.6905945,1.8169434 v 0.5198649 h 5.159e-4 a 0.52916671,0.52916671 0 0 0 -5.159e-4,0.0093 0.52916671,0.52916671 0 0 0 0.5291667,0.5291668 0.52916671,0.52916671 0 0 0 0.5291666,-0.5291668 0.52916671,0.52916671 0 0 0 -5.291e-4,-0.0093 h 5.291e-4 V 2.0815267 h 0.8521444 v 0.2552816 h 5.292e-4 a 0.52916671,0.52916671 0 0 0 -5.292e-4,0.0093 0.52916671,0.52916671 0 0 0 0.5291667,0.5291668 0.52916671,0.52916671 0 0 0 0.5291667,-0.5291668 0.52916671,0.52916671 0 0 0 -5.292e-4,-0.0093 h 5.292e-4 V 1.8169434 H 4.1436747 4.1302389 3.8439515 3.6010722 2.7489278 2.5427389 2.233197 2.2197612 Z" />
    <path
       style="fill:none;stroke:#000000;stroke-width:0.264583px;stroke-linecap:butt;stroke-linejoin:miter;stroke-opacity:1"
       d="m 1.668406,3.8112297 c 1.2784196,1.1797216 2.190329,0.7789524 3.0077,0"
       id="path1259"
       sodipodi:nodetypes="cc" />
    <path
       id="rect1166-8-5"
       style="stroke-width:0.104555;stroke-linecap:round"
       d="M 0.05508109,2.5970523 1.6905945,1.8169434 1.7938956,2.0605276 0.15838216,2.8406365 Z"
       sodipodi:nodetypes="ccccc" />
    <path
       id="rect1166-8-5-9"
       style="stroke-width:0.104555;stroke-linecap:round"
       d="M 6.283624,2.5728488 4.6594056,1.8169434 4.5561045,2.0605276 6.1803229,2.816433 Z"
       sodipodi:nodetypes="ccccc" />
  </g>
</svg>
