<?xml version="1.0" encoding="UTF-8" standalone="no"?>
<!-- Created with Inkscape (http://www.inkscape.org/) -->

<svg
   width="24"
   height="24"
   viewBox="0 0 6.3499999 6.3500002"
   version="1.1"
   id="svg1683"
   inkscape:version="1.1.1 (3bf5ae0d25, 2021-09-20)"
   sodipodi:docname="mine.svg"
   xmlns:inkscape="http://www.inkscape.org/namespaces/inkscape"
   xmlns:sodipodi="http://sodipodi.sourceforge.net/DTD/sodipodi-0.dtd"
   xmlns="http://www.w3.org/2000/svg"
   xmlns:svg="http://www.w3.org/2000/svg">
  <sodipodi:namedview
     id="namedview1685"
     pagecolor="#505050"
     bordercolor="#eeeeee"
     borderopacity="1"
     inkscape:pageshadow="0"
     inkscape:pageopacity="0"
     inkscape:pagecheckerboard="0"
     inkscape:document-units="px"
     showgrid="false"
     units="px"
     inkscape:zoom="22.627417"
     inkscape:cx="9.8553007"
     inkscape:cy="11.866136"
     inkscape:window-width="1920"
     inkscape:window-height="1009"
     inkscape:window-x="-8"
     inkscape:window-y="-8"
     inkscape:window-maximized="1"
     inkscape:current-layer="layer2" />
  <defs
     id="defs1680" />
  <g
     inkscape:groupmode="layer"
     id="layer2"
     inkscape:label="Layer 2">
    <path
       id="path2975"
       style="fill:#000000;stroke-width:1.05133;stroke-linecap:round"
       d="M 12.003906,1.4980469 A 0.49999938,0.49999938 0 0 0 11.501953,2 V 5.0351562 A 7,7 0 0 0 7.3828125,6.7421875 L 6.7773438,6.1347656 a 0.4563326,0.4563326 0 0 0 -0.6425782,0 0.4563326,0.4563326 0 0 0 0,0.6425782 L 6.7421875,7.3828125 A 7,7 0 0 0 5.0351562,11.501953 H 2.0019531 A 0.49999938,0.49999938 0 0 0 1.5,11.996094 0.49999938,0.49999938 0 0 0 2.0019531,12.498047 h 3.0332031 a 7,7 0 0 0 1.7070313,4.119141 l -0.6074219,0.605468 a 0.4563326,0.4563326 0 0 0 0,0.640625 0.4563326,0.4563326 0 0 0 0.6425782,0 l 0.6054687,-0.605469 a 7,7 0 0 0 4.1191405,1.707032 v 3.033203 A 0.49999938,0.49999938 0 0 0 12.003906,22.5 0.49999938,0.49999938 0 0 0 12.498047,21.998047 v -3.017578 a 7,7 0 0 0 4.119141,-1.722657 l 0.605468,0.605469 a 0.4563326,0.4563326 0 0 0 0.640625,0 0.4563326,0.4563326 0 0 0 0,-0.640625 l -0.605469,-0.605468 a 7,7 0 0 0 1.722657,-4.119141 h 3.017578 A 0.49999938,0.49999938 0 0 0 22.5,11.996094 0.49999938,0.49999938 0 0 0 21.998047,11.501953 H 18.980469 A 7,7 0 0 0 17.257812,7.3828125 l 0.605469,-0.6054687 a 0.4563326,0.4563326 0 0 0 0,-0.6425782 0.4563326,0.4563326 0 0 0 -0.316406,-0.1328125 0.4563326,0.4563326 0 0 0 -0.324219,0.1328125 L 16.617188,6.7402344 A 7,7 0 0 0 12.498047,5.0195312 V 2 A 0.49999938,0.49999938 0 0 0 12.003906,1.4980469 Z M 9.7480469,8.2421875 a 1.5,1.5 0 0 1 0.076172,0.00586 1.5,1.5 0 0 1 0.037109,0.00195 1.5,1.5 0 0 1 0.00391,0 1.5,1.5 0 0 1 0.1113281,0.013672 1.5,1.5 0 0 1 0.076171,0.013672 1.5,1.5 0 0 1 0.01367,0.00391 1.5,1.5 0 0 1 0.09961,0.025391 1.5,1.5 0 0 1 0.03711,0.00977 1.5,1.5 0 0 1 0.02344,0.00977 1.5,1.5 0 0 1 0.04883,0.015625 1.5,1.5 0 0 1 0.07226,0.029297 1.5,1.5 0 0 1 0.03516,0.015625 1.5,1.5 0 0 1 0.0078,0.00391 1.5,1.5 0 0 1 0.06055,0.03125 1.5,1.5 0 0 1 0.09961,0.058594 1.5,1.5 0 0 1 0.06445,0.042969 1.5,1.5 0 0 1 0.0918,0.070312 1.5,1.5 0 0 1 0.05859,0.050781 1.5,1.5 0 0 1 0.08203,0.082031 1.5,1.5 0 0 1 0.05078,0.058594 1.5,1.5 0 0 1 0.07031,0.091797 1.5,1.5 0 0 1 0.04297,0.064453 1.5,1.5 0 0 1 0.05859,0.099609 1.5,1.5 0 0 1 0.03516,0.068359 1.5,1.5 0 0 1 0.01367,0.029297 1.5,1.5 0 0 1 0.002,0.00586 1.5,1.5 0 0 1 0.02539,0.064453 1.5,1.5 0 0 1 0.0039,0.00781 1.5,1.5 0 0 1 0.0098,0.029297 1.5,1.5 0 0 1 0.0039,0.013672 1.5,1.5 0 0 1 0.01563,0.046875 1.5,1.5 0 0 1 0.0293,0.1132813 1.5,1.5 0 0 1 0.01953,0.095703 1.5,1.5 0 0 1 0.0059,0.03125 1.5,1.5 0 0 1 0.0039,0.044922 1.5,1.5 0 0 1 0.0078,0.1152343 1.5,1.5 0 0 1 0,0.00781 1.5,1.5 0 0 1 0.002,0.027344 1.5,1.5 0 0 1 -0.002,0.00391 1.5,1.5 0 0 1 0,0.00781 1.5,1.5 0 0 1 -0.111328,0.5566409 1.5,1.5 0 0 1 -0.002,0.0059 1.5,1.5 0 0 1 -0.002,0.0039 1.5,1.5 0 0 1 -0.05469,0.115235 L 11.0625,10.421875 A 1.5,1.5 0 0 1 10.421875,11.0625 l 0.01367,0.01367 a 1.5,1.5 0 0 1 -0.113281,0.05273 1.5,1.5 0 0 1 -0.5761722,0.117188 1.5,1.5 0 0 1 -1.5,-1.5000002 1.5,1.5 0 0 1 0.097656,-0.4921876 1.5,1.5 0 0 1 0.00195,-0.00195 1.5,1.5 0 0 1 0.082031,-0.1816406 1.5,1.5 0 0 1 0.6425781,-0.6425781 1.5,1.5 0 0 1 0.1992187,-0.089844 1.5,1.5 0 0 1 0.4511719,-0.089844 1.5,1.5 0 0 1 0.027344,-0.00586 z"
       transform="scale(0.26458334)" />
  </g>
</svg>
